<?xml version="1.0" standalone="no"?>
<!DOCTYPE svg PUBLIC "-//W3C//DTD SVG 20010904//EN"
 "http://www.w3.org/TR/2001/REC-SVG-20010904/DTD/svg10.dtd">
<svg version="1.0" xmlns="http://www.w3.org/2000/svg"
 width="512.000000pt" height="512.000000pt" viewBox="0 0 512.000000 512.000000"
 preserveAspectRatio="xMidYMid meet">

<g transform="translate(0.000000,512.000000) scale(0.100000,-0.100000)"
fill="#00796b" stroke="none">
<path d="M1450 4486 l-1095 -633 0 -1283 0 -1283 1106 -638 1105 -639 1105
638 1104 637 0 1285 0 1285 -1095 632 c-602 348 -1104 633 -1115 632 -11 0
-513 -285 -1115 -633z m1470 -1211 c72 -36 130 -67 130 -70 0 -10 -700 -1405
-705 -1405 -3 0 -64 29 -135 65 l-130 65 353 705 c193 388 353 705 355 705 1
0 61 -29 132 -65z m-1313 -197 l103 -103 -202 -202 -203 -203 203 -203 202
-202 -105 -105 -105 -105 -308 308 -307 307 305 305 c168 168 307 305 310 305
2 0 51 -46 107 -102z m2343 -203 l305 -305 -305 -305 c-168 -168 -309 -305
-315 -305 -13 0 -205 192 -205 205 0 5 89 99 197 207 l198 198 -198 198 c-108
108 -197 202 -197 207 0 13 192 205 205 205 6 0 147 -137 315 -305z"/>
</g>
</svg>
