<?xml version="1.0" standalone="no"?>
<!DOCTYPE svg PUBLIC "-//W3C//DTD SVG 20010904//EN"
 "http://www.w3.org/TR/2001/REC-SVG-20010904/DTD/svg10.dtd">
<svg version="1.0" xmlns="http://www.w3.org/2000/svg"
 width="512.000000pt" height="512.000000pt" viewBox="0 0 512.000000 512.000000"
 preserveAspectRatio="xMidYMid meet">

<g transform="translate(0.000000,512.000000) scale(0.100000,-0.100000)"
fill="#00796b" stroke="none">
<path d="M335 4883 c-44 -23 -74 -53 -96 -95 -19 -36 -19 -94 -19 -2228 0
-2134 0 -2192 19 -2228 22 -43 53 -73 98 -96 29 -15 225 -16 2223 -16 2134 0
2192 0 2228 19 43 22 73 53 96 98 15 29 16 225 16 2223 0 1998 -1 2194 -16
2223 -23 45 -53 76 -96 98 -36 19 -94 19 -2230 19 -1980 -1 -2196 -2 -2223
-17z m2095 -2229 c24 -49 26 -130 5 -182 -11 -25 -185 -206 -563 -585 l-547
-547 -152 152 -153 153 457 457 458 458 -458 458 -457 457 152 153 153 152
543 -542 c357 -358 549 -557 562 -584z m1520 -1159 l0 -215 -750 0 -750 0 0
215 0 215 750 0 750 0 0 -215z"/>
</g>
</svg>
